# xmcd
#
# Track frame offsets:
# 150
# 14292
# 28317
# 41975
# 55772
# 71435
# 83815
# 101280
# 115455
# 128622
# 142647
# 154855
# 168520
# 181755
#
# Disc length: 2645 seconds
#
#
# Revision: 2
# Processed by: cddbd v1.4PL0 Copyright (c) Steve Scherf et al.
# Submitted via: FreeRIP 2.30 
#
DISCID=b00a530e
DTITLE=Los Tucanes de Tijuana - Tucanes de plata
DYEAR=1997
DGENRE=Country
TTITLE0=la piñata
TTITLE1=El Primo
TTITLE2=consulado privado
TTITLE3=La Banda de la Suburban
TTITLE4=se desgrano la mazorca
TTITLE5=El Doctor del Pueblo
TTITLE6=Operacion Pesada
TTITLE7=No Solo de Traficante
TTITLE8=el ojo de agua
TTITLE9=La Piedrita Colombiana
TTITLE10=los compas de almoloya
TTITLE11=La Ley 57
TTITLE12=la mesa servida
TTITLE13=boletin de prensa
EXTD=
EXTT0=
EXTT1=
EXTT2=
EXTT3=
EXTT4=
EXTT5=
EXTT6=
EXTT7=
EXTT8=
EXTT9=
EXTT10=
EXTT11=
EXTT12=
EXTT13=
PLAYORDER=
